<?xml version="1.0" encoding="UTF-8" standalone="no"?><!DOCTYPE svg PUBLIC "-//W3C//DTD SVG 1.1//EN" "http://www.w3.org/Graphics/SVG/1.1/DTD/svg11.dtd"><svg width="100%" height="100%" viewBox="0 0 39 39" version="1.1" xmlns="http://www.w3.org/2000/svg" xmlns:xlink="http://www.w3.org/1999/xlink" xml:space="preserve" style="fill-rule:evenodd;clip-rule:evenodd;stroke-linejoin:round;stroke-miterlimit:1.41421;"><g><path d="M19.262,0c10.638,0 19.262,8.624 19.262,19.262c0,10.638 -8.624,19.261 -19.262,19.261c-10.638,0 -19.262,-8.623 -19.262,-19.261c0,-10.638 8.624,-19.262 19.262,-19.262Z" style="fill:#4d4d4d;fill-rule:nonzero;"/><g><path d="M15.591,18.528l-10.122,14.544l17.653,-11.746l-11.849,5.942l4.318,-8.74Z" style="fill:#bebebe;fill-rule:nonzero;"/><path d="M19.633,17.526c0.415,-0.553 1.175,-0.795 1.866,-0.553c0.829,0.311 1.243,1.244 0.932,2.073c-0.069,0.173 -0.172,0.311 -0.276,0.449c2.729,1.036 5.838,-0.311 6.875,-3.075c1.071,-2.763 -0.311,-5.838 -3.075,-6.909c-1.658,-0.622 -3.455,-0.38 -4.836,0.518c0.311,0.415 0.449,1.002 0.241,1.555c-0.31,0.829 -1.243,1.244 -2.072,0.933c-0.069,-0.035 -0.104,-0.069 -0.173,-0.069c-0.035,0.069 -0.035,0.103 -0.069,0.172c-0.657,1.659 -0.38,3.489 0.587,4.906Zm3.973,-6.633c0.173,-0.415 0.622,-0.622 1.036,-0.449c0.415,0.173 0.622,0.622 0.449,1.036c-0.172,0.415 -0.621,0.622 -1.036,0.449c-0.38,-0.172 -0.587,-0.621 -0.449,-1.036Zm1.831,3.213c0.276,-0.726 1.105,-1.071 1.831,-0.795c0.725,0.277 1.105,1.106 0.829,1.831c-0.276,0.726 -1.106,1.106 -1.831,0.829c-0.76,-0.311 -1.106,-1.105 -0.829,-1.865Z" style="fill:#bebebe;fill-rule:nonzero;"/><path d="M15.937,10.409l-8.568,16.859l10.848,-16.548c0.242,-0.38 0.553,-0.76 0.898,-1.105c2.695,-2.695 7.082,-2.695 9.811,0c2.695,2.694 2.695,7.082 0,9.811c-0.345,0.345 -0.691,0.622 -1.071,0.898l-18.206,11.849l18.517,-9.603c0.829,-0.415 1.589,-0.968 2.246,-1.659c3.523,-3.523 3.523,-9.293 0,-12.816c-3.524,-3.524 -9.293,-3.524 -12.817,0c-0.656,0.691 -1.244,1.485 -1.658,2.314Z" style="fill:#bebebe;fill-rule:nonzero;"/></g></g></svg>